#!OML:ASF H:\Terrain\Patient Classification 1\Walking\liu\liu.ASF
:FULLY-SPECIFIED
:DEGREES
289
root 8.79685 17.0414 12.0877 7.04898 -2.85289 -5.29616
lowerback -4.48123 1.22316 2.90387
upperback -0.0246077 1.3831 3.75454
thorax 2.46515 0.70266 2.33018
lowerneck -21.2956 -4.73458 -12.2548
upperneck 22.8683 -5.70833 11.5755
head 11.7195 -2.21804 5.46767
rclavicle 1.43622e-014 -7.95139e-015
rhumerus -20.4352 26.2148 -85.3274
rradius 39.1346
rwrist -19.5453
rhand -30.2263 -25.9813
rfingers 7.12502
rthumb -3.53604 -55.9317
lclavicle 1.43622e-014 -7.95139e-015
lhumerus -41.5689 -6.43986 91.3286
lradius 19.2578
lwrist -4.69906
lhand -8.58887 -22.8716
lfingers 7.12502
lthumb 17.3422 6.37472
rfemur -2.31204 3.25129 31.759
rtibia 18.2317
rfoot -16.9946 3.68275
rtoes -11.5495
lfemur -40.0282 6.93948 -16.8819
ltibia 38.0789
lfoot -13.1279 12.5859
ltoes -10.9696
290
root 8.80307 17.0202 12.2461 7.26017 -3.12166 -5.6999
lowerback -4.57319 1.36264 3.16663
upperback 0.0112649 1.54503 3.86651
thorax 2.55497 0.78625 2.31335
lowerneck -21.4407 -4.72984 -12.3183
upperneck 22.8864 -5.73351 11.823
head 11.7697 -2.20071 5.57313
rclavicle -1.78906e-015 -1.35174e-014
rhumerus -19.5621 26.4612 -84.9249
rradius 39.6496
rwrist -19.6628
rhand -30.1287 -25.1766
rfingers 7.12502
rthumb -3.44179 -55.1286
lclavicle -1.78906e-015 -1.35174e-014
lhumerus -42.2089 -4.73816 90.2607
lradius 19.0349
lwrist -6.33083
lhand -8.367 -22.9427
lfingers 7.12502
lthumb 17.5557 6.28469
rfemur -1.27161 3.86997 32.1671
rtibia 17.0532
rfoot -16.5883 3.64661
rtoes -10.4189
lfemur -40.2586 6.5135 -16.1693
ltibia 35.0349
lfoot -13.104 11.984
ltoes -11.3085
291
root 8.81196 17.015 12.4168 7.45484 -3.29459 -5.63649
lowerback -4.795 1.44225 3.00198
upperback 0.125481 1.64244 3.83953
thorax 2.792 0.834043 2.39376
lowerneck -21.7316 -4.67401 -12.3646
upperneck 22.8953 -5.66412 12.0408
head 11.8293 -2.13845 5.68071
rclavicle 8.19987e-015 9.54166e-015
rhumerus -18.6076 26.8159 -84.5244
rradius 39.9758
rwrist -19.9729
rhand -30.484 -23.2117
rfingers 7.12502
rthumb -3.78485 -53.1579
lclavicle 8.19987e-015 9.54166e-015
lhumerus -42.8651 -3.83446 89.6051
lradius 18.8533
lwrist -7.71156
lhand -8.70899 -23.248
lfingers 7.12502
lthumb 17.2265 6.00849
rfemur -0.135142 4.16577 32.0282
rtibia 15.7329
rfoot -16.2958 3.62364
rtoes -11.6068
lfemur -40.3908 5.74486 -15.8882
ltibia 32.0454
lfoot -13.0895 11.646
ltoes -11.7959
292
root 8.83809 17.0229 12.6117 7.43023 -3.53041 -5.73876
lowerback -4.91011 1.63524 3.33005
upperback 0.275458 1.86855 3.75713
thorax 3.02104 0.953246 2.14924
lowerneck -21.8754 -4.75791 -12.4626
upperneck 22.7916 -5.76843 12.2013
head 11.843 -2.16958 5.73932
rclavicle -2.82771e-014 -3.97569e-015
rhumerus -17.8617 26.7193 -84.1316
rradius 40.3497
rwrist -20.2311
rhand -30.8456 -20.5068
rfingers 7.12502
rthumb -4.13401 -50.4464
lclavicle -2.82771e-014 -3.97569e-015
lhumerus -43.5267 -3.92263 89.4813
lradius 18.5136
lwrist -7.98641
lhand -8.72856 -23.0554
lfingers 7.12502
lthumb 17.2077 6.2027
rfemur 1.31531 3.60178 31.8861
rtibia 14.2042
rfoot -15.6402 4.16737
rtoes -13.5415
lfemur -40.1586 4.57809 -15.185
ltibia 29.2026
lfoot -13.1847 11.4794
ltoes -11.5527
293
root 8.85594 17.023 12.801 7.42571 -3.94823 -6.17697
lowerback -4.84121 1.87167 3.87067
upperback 0.208753 2.15783 3.80888
thorax 2.92851 1.10392 1.91872
lowerneck -21.4896 -4.7845 -12.4265
upperneck 22.6146 -5.81162 12.0639
head 11.7 -2.2131 5.66182
rclavicle 3.26007e-014 1.82882e-014
rhumerus -17.4547 26.6265 -83.8841
rradius 40.8859
rwrist -20.0506
rhand -30.1642 -20.1378
rfingers 7.12502
rthumb -3.47601 -50.0892
lclavicle 3.26007e-014 1.82882e-014
lhumerus -44.5317 -3.66246 89.1714
lradius 18.2886
lwrist -7.90318
lhand -8.13022 -22.8777
lfingers 7.12502
lthumb 17.7835 6.32917
rfemur 2.79962 3.43777 32.1454
rtibia 12.5184
rfoot -14.75 4.57573
rtoes -13.8111
lfemur -39.9009 3.42305 -13.8696
ltibia 26.4639
lfoot -13.4797 11.3742
ltoes -10.6186
294
root 8.86223 17.0188 12.9751 7.50467 -4.23106 -6.5617
lowerback -4.81786 1.96777 4.083
upperback 0.122985 2.27477 3.98206
thorax 2.82787 1.16262 1.98516
lowerneck -20.9286 -4.68636 -12.3591
upperneck 22.3244 -5.67398 11.8382
head 11.4495 -2.18749 5.57066
rclavicle 1.73937e-014 -2.14687e-014
rhumerus -16.9789 26.9457 -83.6265
rradius 41.269
rwrist -20.0391
rhand -30.0239 -19.961
rfingers 7.12502
rthumb -3.34052 -49.9146
lclavicle 1.73937e-014 -2.14687e-014
lhumerus -45.4929 -2.84564 88.6766
lradius 18.048
lwrist -8.55276
lhand -8.01731 -23.2864
lfingers 7.12502
lthumb 17.8922 5.91057
rfemur 4.21194 3.23374 32.389
rtibia 10.8369
rfoot -13.837 5.08254
rtoes -13.1429
lfemur -39.8297 2.32588 -12.5977
ltibia 23.9192
lfoot -13.6877 11.244
ltoes -12.1739
295
root 8.8741 17.0266 13.1533 7.51503 -4.41548 -6.37649
lowerback -4.94637 2.03125 3.78661
upperback 0.260066 2.36041 3.98533
thorax 3.0293 1.20311 2.16962
lowerneck -20.8085 -4.65629 -12.5953
upperneck 22.0904 -5.61119 12.0779
head 11.3451 -2.15342 5.70539
rclavicle 4.41302e-014 1.03368e-014
rhumerus -16.0964 27.1056 -83.1518
rradius 41.6955
rwrist -20.0059
rhand -30.0637 -20.8481
rfingers 7.12502
rthumb -3.379 -50.801
lclavicle 4.41302e-014 1.03368e-014
lhumerus -46.0981 -2.46728 88.4758
lradius 17.7363
lwrist -9.57391
lhand -8.4663 -23.5556
lfingers 7.12502
lthumb 17.4601 5.68025
rfemur 5.76444 3.31819 32.0043
rtibia 9.07503
rfoot -13.0103 5.20282
rtoes -13.2404
lfemur -39.7276 0.787362 -11.8274
ltibia 21.7191
lfoot -13.7924 11.4429
ltoes -14.6026
